<mxfile host="app.diagrams.net" modified="2021-11-17T07:22:01.583Z" agent="5.0 (Windows NT 10.0; Win64; x64) AppleWebKit/537.36 (KHTML, like Gecko) Chrome/96.0.4664.45 Safari/537.36" etag="UHbdJ2pSWUQZtDmVPDT8" version="14.8.0" type="github" pages="2">
  <diagram id="4Lwzb9pWGLV403phKLHE" name="第 1 页">
    <mxGraphModel dx="2062" dy="714" grid="0" gridSize="10" guides="0" tooltips="1" connect="0" arrows="0" fold="1" page="0" pageScale="1" pageWidth="1654" pageHeight="2336" math="0" shadow="0">
      <root>
        <mxCell id="0" />
        <mxCell id="1" parent="0" />
        <mxCell id="ewcPsdO0bJN87r8fWngu-35" value="" style="whiteSpace=wrap;html=1;labelBackgroundColor=none;fontSize=24;strokeColor=#000000;fillColor=#B8B8B8;gradientColor=none;gradientDirection=north;fontColor=#FFFFFF;rounded=1;" parent="1" vertex="1">
          <mxGeometry x="706" y="911" width="540" height="350" as="geometry" />
        </mxCell>
        <mxCell id="ewcPsdO0bJN87r8fWngu-93" value="伺服软件" style="rounded=1;whiteSpace=wrap;html=1;dashed=1;labelBackgroundColor=none;fontSize=20;strokeColor=#000000;fillColor=none;gradientColor=none;gradientDirection=north;verticalAlign=top;fontColor=#FFFFFF;" parent="1" vertex="1">
          <mxGeometry x="716" y="961" width="140" height="290" as="geometry" />
        </mxCell>
        <mxCell id="ewcPsdO0bJN87r8fWngu-4" value="&lt;font style=&quot;font-size: 28px&quot;&gt;访问设备&lt;/font&gt;" style="whiteSpace=wrap;html=1;labelBackgroundColor=none;strokeColor=#000000;gradientDirection=north;fillColor=#B8B8B8;fontSize=28;rounded=1;glass=0;shadow=1;fontColor=#FFFFFF;" parent="1" vertex="1">
          <mxGeometry x="366" y="401" width="1060" height="120" as="geometry" />
        </mxCell>
        <mxCell id="ewcPsdO0bJN87r8fWngu-20" value="前端UI" style="whiteSpace=wrap;html=1;fontSize=24;fillColor=#696969;rounded=1;glass=1;fontColor=#FFFFFF;" parent="1" vertex="1">
          <mxGeometry x="186" y="611" width="140" height="60" as="geometry" />
        </mxCell>
        <mxCell id="ewcPsdO0bJN87r8fWngu-21" value="&amp;nbsp; &amp;nbsp;Web端" style="whiteSpace=wrap;html=1;fontSize=24;fillColor=#707070;labelPosition=center;verticalLabelPosition=middle;align=left;verticalAlign=middle;fontColor=#FFFFFF;rounded=1;" parent="1" vertex="1">
          <mxGeometry x="366" y="611" width="560" height="60" as="geometry" />
        </mxCell>
        <mxCell id="ewcPsdO0bJN87r8fWngu-22" value="交互层" style="whiteSpace=wrap;html=1;fontSize=24;fillColor=#696969;rounded=1;glass=1;fontColor=#FFFFFF;" parent="1" vertex="1">
          <mxGeometry x="186" y="761" width="140" height="60" as="geometry" />
        </mxCell>
        <mxCell id="ewcPsdO0bJN87r8fWngu-23" value="&lt;span&gt;&amp;nbsp; &amp;nbsp;Vue&lt;/span&gt;" style="whiteSpace=wrap;html=1;fontSize=24;fillColor=#707070;align=left;fontColor=#FFFFFF;rounded=1;" parent="1" vertex="1">
          <mxGeometry x="366" y="761" width="490" height="60" as="geometry" />
        </mxCell>
        <mxCell id="ewcPsdO0bJN87r8fWngu-24" value="访问层" style="rounded=1;whiteSpace=wrap;html=1;labelBackgroundColor=none;fontSize=24;strokeColor=#000000;fillColor=#696969;gradientDirection=radial;fontColor=#FFFFFF;glass=1;sketch=0;shadow=1;" parent="1" vertex="1">
          <mxGeometry x="186" y="401" width="140" height="120" as="geometry" />
        </mxCell>
        <mxCell id="ewcPsdO0bJN87r8fWngu-25" value="后端服务层" style="whiteSpace=wrap;html=1;labelBackgroundColor=none;fontSize=24;strokeColor=#000000;fillColor=#696969;gradientColor=none;gradientDirection=north;rounded=1;glass=1;fontColor=#FFFFFF;" parent="1" vertex="1">
          <mxGeometry x="186" y="911" width="140" height="350" as="geometry" />
        </mxCell>
        <mxCell id="ewcPsdO0bJN87r8fWngu-26" value="数据层" style="whiteSpace=wrap;html=1;labelBackgroundColor=none;fontSize=24;strokeColor=#000000;fillColor=#696969;gradientColor=none;gradientDirection=north;rounded=1;glass=1;fontColor=#FFFFFF;" parent="1" vertex="1">
          <mxGeometry x="186" y="1351" width="140" height="60" as="geometry" />
        </mxCell>
        <mxCell id="ewcPsdO0bJN87r8fWngu-27" value="持久层" style="whiteSpace=wrap;html=1;labelBackgroundColor=none;fontSize=24;strokeColor=#000000;fillColor=#696969;gradientColor=none;gradientDirection=north;rounded=1;glass=1;fontColor=#FFFFFF;" parent="1" vertex="1">
          <mxGeometry x="186" y="1501" width="140" height="60" as="geometry" />
        </mxCell>
        <mxCell id="ewcPsdO0bJN87r8fWngu-28" value="基础设施" style="whiteSpace=wrap;html=1;labelBackgroundColor=none;fontSize=24;strokeColor=#000000;fillColor=#696969;gradientColor=none;gradientDirection=north;rounded=1;glass=1;fontColor=#FFFFFF;" parent="1" vertex="1">
          <mxGeometry x="186" y="1651" width="140" height="60" as="geometry" />
        </mxCell>
        <mxCell id="ewcPsdO0bJN87r8fWngu-30" value="&amp;nbsp; &amp;nbsp;APP" style="whiteSpace=wrap;html=1;labelBackgroundColor=none;fontSize=24;strokeColor=#000000;fillColor=#707070;gradientColor=none;gradientDirection=north;align=left;fontColor=#FFFFFF;rounded=1;" parent="1" vertex="1">
          <mxGeometry x="956" y="611" width="470" height="60" as="geometry" />
        </mxCell>
        <mxCell id="ewcPsdO0bJN87r8fWngu-31" value="&lt;span&gt;&amp;nbsp; &amp;nbsp;Axios交互&lt;/span&gt;" style="whiteSpace=wrap;html=1;labelBackgroundColor=none;fontSize=24;strokeColor=#000000;fillColor=#707070;gradientColor=none;gradientDirection=north;align=left;fontColor=#FFFFFF;rounded=1;" parent="1" vertex="1">
          <mxGeometry x="886" y="761" width="420" height="60" as="geometry" />
        </mxCell>
        <mxCell id="ewcPsdO0bJN87r8fWngu-32" value="" style="whiteSpace=wrap;html=1;labelBackgroundColor=none;fontSize=24;strokeColor=#000000;fillColor=#B8B8B8;gradientColor=none;gradientDirection=north;fontColor=#FFFFFF;rounded=1;" parent="1" vertex="1">
          <mxGeometry x="366" y="911" width="140" height="350" as="geometry" />
        </mxCell>
        <mxCell id="ewcPsdO0bJN87r8fWngu-33" value="&lt;font color=&quot;#ffffff&quot;&gt;面向设备&lt;/font&gt;" style="text;html=1;align=center;verticalAlign=middle;resizable=0;points=[];autosize=1;strokeColor=none;fillColor=none;fontSize=24;" parent="1" vertex="1">
          <mxGeometry x="383" y="920" width="106" height="33" as="geometry" />
        </mxCell>
        <mxCell id="ewcPsdO0bJN87r8fWngu-34" value="" style="whiteSpace=wrap;html=1;labelBackgroundColor=none;fontSize=24;strokeColor=#000000;fillColor=#B8B8B8;gradientColor=none;gradientDirection=north;fontColor=#FFFFFF;rounded=1;" parent="1" vertex="1">
          <mxGeometry x="536" y="911" width="140" height="350" as="geometry" />
        </mxCell>
        <mxCell id="ewcPsdO0bJN87r8fWngu-36" value="日志记录" style="whiteSpace=wrap;html=1;labelBackgroundColor=none;fontSize=20;strokeColor=#000000;fillColor=#696969;gradientColor=none;gradientDirection=north;rounded=1;fontColor=#FFFFFF;" parent="1" vertex="1">
          <mxGeometry x="1266" y="911" width="40" height="350" as="geometry" />
        </mxCell>
        <mxCell id="ewcPsdO0bJN87r8fWngu-37" value="消息系统" style="whiteSpace=wrap;html=1;labelBackgroundColor=none;fontSize=20;strokeColor=#000000;fillColor=#696969;gradientColor=none;gradientDirection=north;rounded=1;fontColor=#FFFFFF;" parent="1" vertex="1">
          <mxGeometry x="1326" y="761" width="40" height="500" as="geometry" />
        </mxCell>
        <mxCell id="ewcPsdO0bJN87r8fWngu-38" value="权限控制" style="whiteSpace=wrap;html=1;labelBackgroundColor=none;fontSize=20;strokeColor=#000000;fillColor=#696969;gradientColor=none;gradientDirection=north;rounded=1;fontColor=#FFFFFF;" parent="1" vertex="1">
          <mxGeometry x="1386" y="761" width="40" height="500" as="geometry" />
        </mxCell>
        <mxCell id="ewcPsdO0bJN87r8fWngu-39" value="" style="whiteSpace=wrap;html=1;labelBackgroundColor=none;fontSize=24;strokeColor=#000000;fillColor=#707070;gradientColor=none;gradientDirection=north;rounded=1;" parent="1" vertex="1">
          <mxGeometry x="366" y="1351" width="1060" height="60" as="geometry" />
        </mxCell>
        <mxCell id="ewcPsdO0bJN87r8fWngu-40" value="" style="whiteSpace=wrap;html=1;labelBackgroundColor=none;fontSize=24;strokeColor=#000000;fillColor=#707070;gradientColor=none;gradientDirection=north;rounded=1;" parent="1" vertex="1">
          <mxGeometry x="366" y="1501" width="1060" height="60" as="geometry" />
        </mxCell>
        <mxCell id="ewcPsdO0bJN87r8fWngu-41" value="" style="whiteSpace=wrap;html=1;labelBackgroundColor=none;fontSize=24;strokeColor=#000000;fillColor=#707070;gradientColor=none;gradientDirection=north;rounded=1;" parent="1" vertex="1">
          <mxGeometry x="366" y="1651" width="1060" height="60" as="geometry" />
        </mxCell>
        <mxCell id="ewcPsdO0bJN87r8fWngu-43" value="" style="html=1;shadow=0;dashed=0;align=center;verticalAlign=middle;shape=mxgraph.arrows2.arrow;dy=0.6;dx=40;direction=north;notch=0;labelBackgroundColor=none;fontSize=24;strokeColor=#000000;fillColor=#0F0F0F;gradientDirection=west;gradientColor=#FFFFFF;" parent="1" vertex="1">
          <mxGeometry x="1146" y="531" width="60" height="70" as="geometry" />
        </mxCell>
        <mxCell id="ewcPsdO0bJN87r8fWngu-44" value="" style="html=1;shadow=0;dashed=0;align=center;verticalAlign=middle;shape=mxgraph.arrows2.arrow;dy=0.6;dx=40;direction=south;notch=0;labelBackgroundColor=none;fontSize=24;strokeColor=#000000;fillColor=#FAFAFA;gradientDirection=east;gradientColor=#050505;" parent="1" vertex="1">
          <mxGeometry x="616" y="531" width="60" height="70" as="geometry" />
        </mxCell>
        <mxCell id="ewcPsdO0bJN87r8fWngu-45" value="" style="html=1;shadow=0;dashed=0;align=center;verticalAlign=middle;shape=mxgraph.arrows2.arrow;dy=0.6;dx=40;direction=north;notch=0;labelBackgroundColor=none;fontSize=24;strokeColor=#000000;fillColor=#0F0F0F;gradientDirection=west;gradientColor=#FFFFFF;" parent="1" vertex="1">
          <mxGeometry x="1146" y="681" width="60" height="70" as="geometry" />
        </mxCell>
        <mxCell id="ewcPsdO0bJN87r8fWngu-46" value="" style="html=1;shadow=0;dashed=0;align=center;verticalAlign=middle;shape=mxgraph.arrows2.arrow;dy=0.6;dx=40;direction=south;notch=0;labelBackgroundColor=none;fontSize=24;strokeColor=#000000;fillColor=#FAFAFA;gradientDirection=east;gradientColor=#050505;" parent="1" vertex="1">
          <mxGeometry x="616" y="681" width="60" height="70" as="geometry" />
        </mxCell>
        <mxCell id="ewcPsdO0bJN87r8fWngu-47" value="" style="html=1;shadow=0;dashed=0;align=center;verticalAlign=middle;shape=mxgraph.arrows2.arrow;dy=0.6;dx=40;direction=south;notch=0;labelBackgroundColor=none;fontSize=24;strokeColor=#000000;fillColor=#FAFAFA;gradientDirection=east;gradientColor=#050505;" parent="1" vertex="1">
          <mxGeometry x="616" y="831" width="60" height="70" as="geometry" />
        </mxCell>
        <mxCell id="ewcPsdO0bJN87r8fWngu-48" value="" style="html=1;shadow=0;dashed=0;align=center;verticalAlign=middle;shape=mxgraph.arrows2.arrow;dy=0.6;dx=40;direction=north;notch=0;labelBackgroundColor=none;fontSize=24;strokeColor=#000000;fillColor=#0F0F0F;gradientDirection=west;gradientColor=#FFFFFF;" parent="1" vertex="1">
          <mxGeometry x="1146" y="831" width="60" height="70" as="geometry" />
        </mxCell>
        <mxCell id="ewcPsdO0bJN87r8fWngu-49" value="" style="html=1;shadow=0;dashed=0;align=center;verticalAlign=middle;shape=mxgraph.arrows2.arrow;dy=0.6;dx=40;direction=south;notch=0;labelBackgroundColor=none;fontSize=24;strokeColor=#000000;fillColor=#FAFAFA;gradientDirection=east;gradientColor=#050505;" parent="1" vertex="1">
          <mxGeometry x="846" y="1271" width="60" height="70" as="geometry" />
        </mxCell>
        <mxCell id="ewcPsdO0bJN87r8fWngu-50" value="" style="html=1;shadow=0;dashed=0;align=center;verticalAlign=middle;shape=mxgraph.arrows2.arrow;dy=0.6;dx=40;direction=south;notch=0;labelBackgroundColor=none;fontSize=24;strokeColor=#000000;fillColor=#FAFAFA;gradientDirection=east;gradientColor=#050505;" parent="1" vertex="1">
          <mxGeometry x="846" y="1421" width="60" height="70" as="geometry" />
        </mxCell>
        <mxCell id="ewcPsdO0bJN87r8fWngu-53" value="" style="html=1;shadow=0;dashed=0;align=center;verticalAlign=middle;shape=mxgraph.arrows2.arrow;dy=0.6;dx=40;direction=south;notch=0;labelBackgroundColor=none;fontSize=24;strokeColor=#000000;fillColor=#FAFAFA;gradientDirection=east;gradientColor=#050505;" parent="1" vertex="1">
          <mxGeometry x="846" y="1571" width="60" height="70" as="geometry" />
        </mxCell>
        <mxCell id="ewcPsdO0bJN87r8fWngu-54" value="&lt;font color=&quot;#ffffff&quot;&gt;面向用户&lt;/font&gt;" style="text;html=1;align=center;verticalAlign=middle;resizable=0;points=[];autosize=1;strokeColor=none;fillColor=none;fontSize=24;" parent="1" vertex="1">
          <mxGeometry x="553" y="920" width="106" height="33" as="geometry" />
        </mxCell>
        <mxCell id="ewcPsdO0bJN87r8fWngu-55" value="&lt;font color=&quot;#ffffff&quot;&gt;管理系统&lt;/font&gt;" style="text;html=1;align=center;verticalAlign=middle;resizable=0;points=[];autosize=1;strokeColor=none;fillColor=none;fontSize=24;" parent="1" vertex="1">
          <mxGeometry x="908" y="920" width="106" height="33" as="geometry" />
        </mxCell>
        <mxCell id="ewcPsdO0bJN87r8fWngu-56" value="&lt;font style=&quot;font-size: 16px&quot;&gt;下发查询&lt;/font&gt;" style="rounded=1;whiteSpace=wrap;html=1;labelBackgroundColor=none;fontSize=24;strokeColor=#000000;gradientColor=none;gradientDirection=north;" parent="1" vertex="1">
          <mxGeometry x="386" y="961" width="100" height="40" as="geometry" />
        </mxCell>
        <mxCell id="ewcPsdO0bJN87r8fWngu-57" value="&lt;font style=&quot;font-size: 16px&quot;&gt;故障确认&lt;/font&gt;" style="rounded=1;whiteSpace=wrap;html=1;labelBackgroundColor=none;fontSize=24;strokeColor=#000000;gradientColor=none;gradientDirection=north;" parent="1" vertex="1">
          <mxGeometry x="386" y="1021" width="100" height="40" as="geometry" />
        </mxCell>
        <mxCell id="ewcPsdO0bJN87r8fWngu-58" value="拓展" style="rounded=1;whiteSpace=wrap;html=1;labelBackgroundColor=none;fontSize=16;strokeColor=#000000;gradientColor=none;gradientDirection=north;dashed=1;verticalAlign=top;" parent="1" vertex="1">
          <mxGeometry x="376" y="1111" width="120" height="140" as="geometry" />
        </mxCell>
        <mxCell id="ewcPsdO0bJN87r8fWngu-59" value="终端控制" style="rounded=1;whiteSpace=wrap;html=1;dashed=1;labelBackgroundColor=none;fontSize=16;strokeColor=#000000;fillColor=#B8B8B8;gradientColor=none;gradientDirection=north;fontColor=#FFFFFF;" parent="1" vertex="1">
          <mxGeometry x="386" y="1149" width="100" height="40" as="geometry" />
        </mxCell>
        <mxCell id="ewcPsdO0bJN87r8fWngu-82" value="&lt;font style=&quot;font-size: 22px&quot;&gt;……&lt;/font&gt;" style="text;html=1;align=center;verticalAlign=middle;resizable=0;points=[];autosize=1;strokeColor=none;fillColor=none;fontSize=1;" parent="1" vertex="1">
          <mxGeometry x="406" y="1071" width="60" height="10" as="geometry" />
        </mxCell>
        <mxCell id="ewcPsdO0bJN87r8fWngu-83" value="&lt;font style=&quot;font-size: 22px&quot;&gt;……&lt;/font&gt;" style="text;html=1;align=center;verticalAlign=middle;resizable=0;points=[];autosize=1;strokeColor=none;fillColor=none;fontSize=1;" parent="1" vertex="1">
          <mxGeometry x="406" y="1201" width="60" height="10" as="geometry" />
        </mxCell>
        <mxCell id="ewcPsdO0bJN87r8fWngu-86" value="&lt;font style=&quot;font-size: 16px&quot;&gt;统计数据&lt;/font&gt;" style="rounded=1;whiteSpace=wrap;html=1;labelBackgroundColor=none;fontSize=24;strokeColor=#000000;gradientColor=none;gradientDirection=north;" parent="1" vertex="1">
          <mxGeometry x="556" y="961" width="100" height="40" as="geometry" />
        </mxCell>
        <mxCell id="ewcPsdO0bJN87r8fWngu-87" value="&lt;span style=&quot;font-size: 16px&quot;&gt;验证登录&lt;/span&gt;" style="rounded=1;whiteSpace=wrap;html=1;labelBackgroundColor=none;fontSize=24;strokeColor=#000000;gradientColor=none;gradientDirection=north;" parent="1" vertex="1">
          <mxGeometry x="736" y="1001" width="100" height="40" as="geometry" />
        </mxCell>
        <mxCell id="ewcPsdO0bJN87r8fWngu-88" value="&lt;span style=&quot;font-size: 16px&quot;&gt;定时任务&lt;/span&gt;" style="rounded=1;whiteSpace=wrap;html=1;labelBackgroundColor=none;fontSize=24;strokeColor=#000000;gradientColor=none;gradientDirection=north;" parent="1" vertex="1">
          <mxGeometry x="556" y="1061" width="100" height="40" as="geometry" />
        </mxCell>
        <mxCell id="ewcPsdO0bJN87r8fWngu-89" value="拓展" style="rounded=1;whiteSpace=wrap;html=1;labelBackgroundColor=none;fontSize=16;strokeColor=#000000;gradientColor=none;gradientDirection=north;dashed=1;verticalAlign=top;" parent="1" vertex="1">
          <mxGeometry x="546" y="1141" width="120" height="110" as="geometry" />
        </mxCell>
        <mxCell id="ewcPsdO0bJN87r8fWngu-90" value="&lt;font style=&quot;font-size: 22px&quot;&gt;……&lt;/font&gt;" style="text;html=1;align=center;verticalAlign=middle;resizable=0;points=[];autosize=1;strokeColor=none;fillColor=none;fontSize=1;" parent="1" vertex="1">
          <mxGeometry x="576" y="1111" width="60" height="10" as="geometry" />
        </mxCell>
        <mxCell id="ewcPsdO0bJN87r8fWngu-91" value="信息提醒" style="rounded=1;whiteSpace=wrap;html=1;dashed=1;labelBackgroundColor=none;fontSize=16;strokeColor=#000000;fillColor=#B8B8B8;gradientColor=none;gradientDirection=north;fontColor=#FFFFFF;" parent="1" vertex="1">
          <mxGeometry x="556" y="1169" width="100" height="40" as="geometry" />
        </mxCell>
        <mxCell id="ewcPsdO0bJN87r8fWngu-92" value="&lt;font style=&quot;font-size: 22px&quot;&gt;……&lt;/font&gt;" style="text;html=1;align=center;verticalAlign=middle;resizable=0;points=[];autosize=1;strokeColor=none;fillColor=none;fontSize=1;" parent="1" vertex="1">
          <mxGeometry x="576" y="1221" width="60" height="10" as="geometry" />
        </mxCell>
        <mxCell id="ewcPsdO0bJN87r8fWngu-94" value="&lt;span style=&quot;font-size: 16px&quot;&gt;综合查询&lt;/span&gt;" style="rounded=1;whiteSpace=wrap;html=1;labelBackgroundColor=none;fontSize=24;strokeColor=#000000;gradientColor=none;gradientDirection=north;" parent="1" vertex="1">
          <mxGeometry x="556" y="1011" width="100" height="40" as="geometry" />
        </mxCell>
        <mxCell id="ewcPsdO0bJN87r8fWngu-95" value="&lt;span style=&quot;font-size: 16px&quot;&gt;权限管理&lt;/span&gt;" style="rounded=1;whiteSpace=wrap;html=1;labelBackgroundColor=none;fontSize=24;strokeColor=#000000;gradientColor=none;gradientDirection=north;" parent="1" vertex="1">
          <mxGeometry x="736" y="1051" width="100" height="40" as="geometry" />
        </mxCell>
        <mxCell id="ewcPsdO0bJN87r8fWngu-96" value="拓展" style="rounded=1;whiteSpace=wrap;html=1;labelBackgroundColor=none;fontSize=16;strokeColor=#000000;gradientColor=none;gradientDirection=north;dashed=1;verticalAlign=top;" parent="1" vertex="1">
          <mxGeometry x="726" y="1131" width="120" height="110" as="geometry" />
        </mxCell>
        <mxCell id="ewcPsdO0bJN87r8fWngu-97" value="&lt;font style=&quot;font-size: 22px&quot;&gt;……&lt;/font&gt;" style="text;html=1;align=center;verticalAlign=middle;resizable=0;points=[];autosize=1;strokeColor=none;fillColor=none;fontSize=1;" parent="1" vertex="1">
          <mxGeometry x="756" y="1096" width="60" height="10" as="geometry" />
        </mxCell>
        <mxCell id="ewcPsdO0bJN87r8fWngu-98" value="升级服务" style="rounded=1;whiteSpace=wrap;html=1;dashed=1;labelBackgroundColor=none;fontSize=16;strokeColor=#000000;fillColor=#B8B8B8;gradientColor=none;gradientDirection=north;fontColor=#FFFFFF;" parent="1" vertex="1">
          <mxGeometry x="736" y="1169" width="100" height="40" as="geometry" />
        </mxCell>
        <mxCell id="ewcPsdO0bJN87r8fWngu-99" value="&lt;font style=&quot;font-size: 22px&quot;&gt;……&lt;/font&gt;" style="text;html=1;align=center;verticalAlign=middle;resizable=0;points=[];autosize=1;strokeColor=none;fillColor=none;fontSize=1;" parent="1" vertex="1">
          <mxGeometry x="756" y="1211" width="60" height="10" as="geometry" />
        </mxCell>
        <mxCell id="ewcPsdO0bJN87r8fWngu-100" value="（拓展）业务系统" style="rounded=1;whiteSpace=wrap;html=1;dashed=1;labelBackgroundColor=none;fontSize=20;strokeColor=#000000;fillColor=none;gradientColor=none;gradientDirection=north;verticalAlign=top;fontColor=#FFFFFF;" parent="1" vertex="1">
          <mxGeometry x="876" y="961" width="360" height="290" as="geometry" />
        </mxCell>
        <mxCell id="ewcPsdO0bJN87r8fWngu-101" value="业务处理" style="rounded=1;whiteSpace=wrap;html=1;dashed=1;labelBackgroundColor=none;fontSize=20;strokeColor=#000000;gradientColor=none;gradientDirection=north;verticalAlign=top;" parent="1" vertex="1">
          <mxGeometry x="1001" y="1031" width="110" height="40" as="geometry" />
        </mxCell>
        <mxCell id="ewcPsdO0bJN87r8fWngu-102" value="数据管理" style="rounded=1;whiteSpace=wrap;html=1;dashed=1;labelBackgroundColor=none;fontSize=20;strokeColor=#000000;gradientColor=none;gradientDirection=north;verticalAlign=top;" parent="1" vertex="1">
          <mxGeometry x="1001" y="1121" width="110" height="40" as="geometry" />
        </mxCell>
        <mxCell id="ewcPsdO0bJN87r8fWngu-106" value="&lt;font style=&quot;font-size: 16px&quot;&gt;POST请求&lt;/font&gt;" style="rounded=1;whiteSpace=wrap;html=1;labelBackgroundColor=none;fontSize=24;strokeColor=#000000;fillColor=none;gradientColor=none;gradientDirection=north;" parent="1" vertex="1">
          <mxGeometry x="1049.5" y="771" width="100" height="40" as="geometry" />
        </mxCell>
        <mxCell id="ewcPsdO0bJN87r8fWngu-107" value="&lt;font style=&quot;font-size: 16px&quot;&gt;GET请求&lt;/font&gt;" style="rounded=1;whiteSpace=wrap;html=1;labelBackgroundColor=none;fontSize=24;strokeColor=#000000;gradientColor=none;gradientDirection=north;" parent="1" vertex="1">
          <mxGeometry x="1189.5" y="771" width="100" height="40" as="geometry" />
        </mxCell>
        <mxCell id="ewcPsdO0bJN87r8fWngu-108" value="" style="sketch=0;pointerEvents=1;shadow=0;dashed=0;html=1;strokeColor=none;fillColor=#FFFFFF;labelPosition=center;verticalLabelPosition=bottom;verticalAlign=top;outlineConnect=0;align=center;shape=mxgraph.office.devices.lcd_monitor;hachureGap=4;fontSize=16;" parent="1" vertex="1">
          <mxGeometry x="526" y="432.9999999999998" width="98" height="72" as="geometry" />
        </mxCell>
        <mxCell id="ewcPsdO0bJN87r8fWngu-109" value="台式电脑设备" style="text;html=1;align=center;verticalAlign=middle;resizable=0;points=[];autosize=1;strokeColor=none;fillColor=none;hachureGap=4;fontSize=16;fontColor=#FFFFFF;" parent="1" vertex="1">
          <mxGeometry x="523" y="409.9999999999998" width="106" height="23" as="geometry" />
        </mxCell>
        <mxCell id="ewcPsdO0bJN87r8fWngu-110" value="" style="sketch=0;pointerEvents=1;shadow=0;dashed=0;html=1;strokeColor=none;fillColor=#FFFFFF;labelPosition=center;verticalLabelPosition=bottom;verticalAlign=top;outlineConnect=0;align=center;shape=mxgraph.office.devices.laptop;hachureGap=4;fontSize=16;" parent="1" vertex="1">
          <mxGeometry x="667.5" y="442.0000000000002" width="91" height="59" as="geometry" />
        </mxCell>
        <mxCell id="ewcPsdO0bJN87r8fWngu-111" value="移动电脑设备" style="text;html=1;align=center;verticalAlign=middle;resizable=0;points=[];autosize=1;strokeColor=none;fillColor=none;hachureGap=4;fontSize=16;fontColor=#FFFFFF;" parent="1" vertex="1">
          <mxGeometry x="663" y="416.0000000000002" width="106" height="23" as="geometry" />
        </mxCell>
        <mxCell id="ewcPsdO0bJN87r8fWngu-112" value="" style="sketch=0;pointerEvents=1;shadow=0;dashed=0;html=1;strokeColor=none;fillColor=#FFFFFF;labelPosition=center;verticalLabelPosition=bottom;verticalAlign=top;outlineConnect=0;align=center;shape=mxgraph.office.devices.cell_phone_windows_phone_standalone;hachureGap=4;fontSize=16;" parent="1" vertex="1">
          <mxGeometry x="1054.5" y="449" width="24" height="42" as="geometry" />
        </mxCell>
        <mxCell id="ewcPsdO0bJN87r8fWngu-113" value="" style="sketch=0;pointerEvents=1;shadow=0;dashed=0;html=1;strokeColor=none;fillColor=#FFFFFF;labelPosition=center;verticalLabelPosition=bottom;verticalAlign=top;outlineConnect=0;align=center;shape=mxgraph.office.devices.cell_phone_windows_phone_standalone;hachureGap=4;fontSize=16;" parent="1" vertex="1">
          <mxGeometry x="1092.5" y="449" width="24" height="42" as="geometry" />
        </mxCell>
        <mxCell id="ewcPsdO0bJN87r8fWngu-114" value="" style="sketch=0;pointerEvents=1;shadow=0;dashed=0;html=1;strokeColor=none;fillColor=#FFFFFF;labelPosition=center;verticalLabelPosition=bottom;verticalAlign=top;outlineConnect=0;align=center;shape=mxgraph.office.devices.cell_phone_windows_phone_standalone;hachureGap=4;fontSize=16;" parent="1" vertex="1">
          <mxGeometry x="1130.5" y="449" width="24" height="42" as="geometry" />
        </mxCell>
        <mxCell id="ewcPsdO0bJN87r8fWngu-115" value="手机移动设备" style="text;html=1;align=center;verticalAlign=middle;resizable=0;points=[];autosize=1;strokeColor=none;fillColor=none;hachureGap=4;fontSize=16;fontColor=#FFFFFF;" parent="1" vertex="1">
          <mxGeometry x="1054.5" y="416" width="106" height="23" as="geometry" />
        </mxCell>
        <mxCell id="ewcPsdO0bJN87r8fWngu-116" value="" style="sketch=0;pointerEvents=1;shadow=0;dashed=0;html=1;strokeColor=none;fillColor=#FFFFFF;labelPosition=center;verticalLabelPosition=bottom;verticalAlign=top;outlineConnect=0;align=center;shape=mxgraph.office.devices.ipad_mini;hachureGap=4;fontSize=16;" parent="1" vertex="1">
          <mxGeometry x="1194" y="441" width="41" height="57" as="geometry" />
        </mxCell>
        <mxCell id="ewcPsdO0bJN87r8fWngu-117" value="" style="sketch=0;pointerEvents=1;shadow=0;dashed=0;html=1;strokeColor=none;fillColor=#FFFFFF;labelPosition=center;verticalLabelPosition=bottom;verticalAlign=top;outlineConnect=0;align=center;shape=mxgraph.office.devices.ipad_mini;hachureGap=4;fontSize=16;" parent="1" vertex="1">
          <mxGeometry x="1248.5" y="441" width="41" height="57" as="geometry" />
        </mxCell>
        <mxCell id="ewcPsdO0bJN87r8fWngu-118" value="平板电脑设备" style="text;html=1;align=center;verticalAlign=middle;resizable=0;points=[];autosize=1;strokeColor=none;fillColor=none;hachureGap=4;fontSize=16;fontColor=#FFFFFF;" parent="1" vertex="1">
          <mxGeometry x="1191.5" y="416" width="106" height="23" as="geometry" />
        </mxCell>
        <mxCell id="ewcPsdO0bJN87r8fWngu-119" value="&lt;font style=&quot;font-size: 16px&quot;&gt;Vue&lt;/font&gt;" style="rounded=1;whiteSpace=wrap;html=1;labelBackgroundColor=none;fontSize=24;strokeColor=#000000;gradientColor=none;gradientDirection=north;" parent="1" vertex="1">
          <mxGeometry x="491" y="771" width="100" height="40" as="geometry" />
        </mxCell>
        <mxCell id="ewcPsdO0bJN87r8fWngu-120" value="&lt;font style=&quot;font-size: 16px&quot;&gt;Vuex&lt;/font&gt;" style="rounded=1;whiteSpace=wrap;html=1;labelBackgroundColor=none;fontSize=24;strokeColor=#000000;gradientColor=none;gradientDirection=north;" parent="1" vertex="1">
          <mxGeometry x="616" y="771" width="100" height="40" as="geometry" />
        </mxCell>
        <mxCell id="ewcPsdO0bJN87r8fWngu-121" value="&lt;font style=&quot;font-size: 16px&quot;&gt;Vue-Router&lt;/font&gt;" style="rounded=1;whiteSpace=wrap;html=1;labelBackgroundColor=none;fontSize=24;strokeColor=#000000;gradientColor=none;gradientDirection=north;" parent="1" vertex="1">
          <mxGeometry x="736" y="771" width="100" height="40" as="geometry" />
        </mxCell>
        <mxCell id="ewcPsdO0bJN87r8fWngu-122" value="&lt;font style=&quot;font-size: 16px&quot;&gt;ElementUI&lt;/font&gt;" style="rounded=1;whiteSpace=wrap;html=1;labelBackgroundColor=none;fontSize=24;strokeColor=#000000;gradientColor=none;gradientDirection=north;" parent="1" vertex="1">
          <mxGeometry x="486" y="621" width="95" height="40" as="geometry" />
        </mxCell>
        <mxCell id="ewcPsdO0bJN87r8fWngu-123" value="&lt;font style=&quot;font-size: 16px&quot;&gt;Iview&lt;/font&gt;" style="rounded=1;whiteSpace=wrap;html=1;labelBackgroundColor=none;fontSize=24;strokeColor=#000000;gradientColor=none;gradientDirection=north;" parent="1" vertex="1">
          <mxGeometry x="601" y="621" width="90" height="40" as="geometry" />
        </mxCell>
        <mxCell id="ewcPsdO0bJN87r8fWngu-124" value="LayUI" style="rounded=1;whiteSpace=wrap;html=1;labelBackgroundColor=none;fontSize=16;strokeColor=#000000;gradientColor=none;gradientDirection=north;" parent="1" vertex="1">
          <mxGeometry x="711" y="621" width="90" height="40" as="geometry" />
        </mxCell>
        <mxCell id="ewcPsdO0bJN87r8fWngu-125" value="Vant" style="rounded=1;whiteSpace=wrap;html=1;labelBackgroundColor=none;fontSize=16;strokeColor=#000000;gradientColor=none;gradientDirection=north;" parent="1" vertex="1">
          <mxGeometry x="821" y="621" width="90" height="40" as="geometry" />
        </mxCell>
        <mxCell id="ewcPsdO0bJN87r8fWngu-126" value="IOS/Android" style="rounded=1;whiteSpace=wrap;html=1;labelBackgroundColor=none;fontSize=16;strokeColor=#000000;gradientColor=none;gradientDirection=north;" parent="1" vertex="1">
          <mxGeometry x="1078.5" y="621" width="106.5" height="40" as="geometry" />
        </mxCell>
        <mxCell id="ewcPsdO0bJN87r8fWngu-127" value="微信小程序" style="rounded=1;whiteSpace=wrap;html=1;labelBackgroundColor=none;fontSize=16;strokeColor=#000000;gradientColor=none;gradientDirection=north;" parent="1" vertex="1">
          <mxGeometry x="1232.75" y="621" width="106.5" height="40" as="geometry" />
        </mxCell>
        <mxCell id="ewcPsdO0bJN87r8fWngu-129" value="数据缓存" style="rounded=1;whiteSpace=wrap;html=1;labelBackgroundColor=none;fontSize=16;strokeColor=#000000;gradientColor=none;gradientDirection=north;align=center;verticalAlign=middle;" parent="1" vertex="1">
          <mxGeometry x="386" y="1361" width="250" height="40" as="geometry" />
        </mxCell>
        <mxCell id="ewcPsdO0bJN87r8fWngu-130" value="读写数据库" style="rounded=1;whiteSpace=wrap;html=1;labelBackgroundColor=none;fontSize=16;strokeColor=#000000;gradientColor=none;gradientDirection=north;align=center;verticalAlign=middle;" parent="1" vertex="1">
          <mxGeometry x="944" y="1361" width="250" height="40" as="geometry" />
        </mxCell>
        <mxCell id="ewcPsdO0bJN87r8fWngu-131" value="存储过程" style="rounded=1;whiteSpace=wrap;html=1;labelBackgroundColor=none;fontSize=16;strokeColor=#000000;gradientColor=none;gradientDirection=north;align=center;verticalAlign=middle;" parent="1" vertex="1">
          <mxGeometry x="667.5" y="1361" width="250" height="40" as="geometry" />
        </mxCell>
        <mxCell id="ewcPsdO0bJN87r8fWngu-132" value="……" style="rounded=1;whiteSpace=wrap;html=1;dashed=1;labelBackgroundColor=none;fontSize=21;strokeColor=#000000;gradientColor=none;gradientDirection=north;align=center;verticalAlign=middle;" parent="1" vertex="1">
          <mxGeometry x="1226" y="1361" width="180" height="40" as="geometry" />
        </mxCell>
        <mxCell id="ewcPsdO0bJN87r8fWngu-133" value="缓存服务：Redis Memcached" style="rounded=1;whiteSpace=wrap;html=1;labelBackgroundColor=none;fontSize=16;strokeColor=#000000;gradientColor=none;gradientDirection=north;align=center;verticalAlign=middle;" parent="1" vertex="1">
          <mxGeometry x="386" y="1511" width="350" height="40" as="geometry" />
        </mxCell>
        <mxCell id="ewcPsdO0bJN87r8fWngu-134" value="存储服务：MySQL&amp;nbsp; SQLServer&amp;nbsp; /&amp;nbsp; 阿里云OSS" style="rounded=1;whiteSpace=wrap;html=1;labelBackgroundColor=none;fontSize=16;strokeColor=#000000;gradientColor=none;gradientDirection=north;align=center;verticalAlign=middle;" parent="1" vertex="1">
          <mxGeometry x="769" y="1511" width="628.5" height="40" as="geometry" />
        </mxCell>
        <mxCell id="ewcPsdO0bJN87r8fWngu-135" value="" style="rounded=1;whiteSpace=wrap;html=1;labelBackgroundColor=none;fontSize=21;strokeColor=#000000;fillColor=none;gradientColor=none;gradientDirection=north;align=center;verticalAlign=middle;dashed=1;" parent="1" vertex="1">
          <mxGeometry x="1160.5" y="1518.5" width="90" height="25" as="geometry" />
        </mxCell>
        <mxCell id="ewcPsdO0bJN87r8fWngu-136" value="独立文件服务器" style="rounded=1;whiteSpace=wrap;html=1;labelBackgroundColor=none;fontSize=16;strokeColor=#000000;gradientColor=none;gradientDirection=north;align=center;verticalAlign=middle;" parent="1" vertex="1">
          <mxGeometry x="386" y="1661" width="220" height="40" as="geometry" />
        </mxCell>
        <mxCell id="ewcPsdO0bJN87r8fWngu-137" value="云服务器" style="rounded=1;whiteSpace=wrap;html=1;labelBackgroundColor=none;fontSize=16;strokeColor=#000000;gradientColor=none;gradientDirection=north;align=center;verticalAlign=middle;" parent="1" vertex="1">
          <mxGeometry x="636" y="1661" width="220" height="40" as="geometry" />
        </mxCell>
        <mxCell id="ewcPsdO0bJN87r8fWngu-138" value="操作系统" style="rounded=1;whiteSpace=wrap;html=1;labelBackgroundColor=none;fontSize=16;strokeColor=#000000;gradientColor=none;gradientDirection=north;align=center;verticalAlign=middle;" parent="1" vertex="1">
          <mxGeometry x="886" y="1661" width="220" height="40" as="geometry" />
        </mxCell>
        <mxCell id="ewcPsdO0bJN87r8fWngu-139" value="中间件" style="rounded=1;whiteSpace=wrap;html=1;labelBackgroundColor=none;fontSize=16;strokeColor=#000000;gradientColor=none;gradientDirection=north;align=center;verticalAlign=middle;" parent="1" vertex="1">
          <mxGeometry x="1134.5" y="1661" width="220" height="40" as="geometry" />
        </mxCell>
        <mxCell id="yT34OxxfA8Mo7EeAhKrB-1" value="&lt;font style=&quot;font-size: 16px&quot;&gt;POST请求&lt;/font&gt;" style="rounded=1;whiteSpace=wrap;html=1;labelBackgroundColor=none;fontSize=24;strokeColor=#000000;gradientColor=none;gradientDirection=north;" parent="1" vertex="1">
          <mxGeometry x="1049.5" y="771" width="100" height="40" as="geometry" />
        </mxCell>
      </root>
    </mxGraphModel>
  </diagram>
  <diagram id="t00vtazSUAChMTlwm2JS" name="第 2 页">
    <mxGraphModel dx="3777" dy="1944" grid="0" gridSize="10" guides="0" tooltips="1" connect="0" arrows="0" fold="1" page="0" pageScale="1" pageWidth="1169" pageHeight="827" math="0" shadow="0">
      <root>
        <mxCell id="rfwvtbxlyspAQ6YAWuIx-0" />
        <mxCell id="rfwvtbxlyspAQ6YAWuIx-1" parent="rfwvtbxlyspAQ6YAWuIx-0" />
        <mxCell id="rfwvtbxlyspAQ6YAWuIx-2" value="" style="rounded=0;whiteSpace=wrap;html=1;hachureGap=4;fontSize=16;dashed=1;" vertex="1" parent="rfwvtbxlyspAQ6YAWuIx-1">
          <mxGeometry x="-526" y="-205" width="123" height="405" as="geometry" />
        </mxCell>
        <mxCell id="rfwvtbxlyspAQ6YAWuIx-3" value="" style="whiteSpace=wrap;html=1;hachureGap=4;fontSize=16;strokeColor=default;dashed=1;" vertex="1" parent="rfwvtbxlyspAQ6YAWuIx-1">
          <mxGeometry x="360.5" y="-194.5" width="65.5" height="381.5" as="geometry" />
        </mxCell>
        <mxCell id="rfwvtbxlyspAQ6YAWuIx-5" value="" style="sketch=0;pointerEvents=1;shadow=0;dashed=0;html=1;strokeColor=none;fillColor=#505050;labelPosition=center;verticalLabelPosition=bottom;verticalAlign=top;outlineConnect=0;align=center;shape=mxgraph.office.devices.cell_phone_windows_phone_standalone;hachureGap=4;fontSize=16;" vertex="1" parent="rfwvtbxlyspAQ6YAWuIx-1">
          <mxGeometry x="-514" y="-165" width="24" height="42" as="geometry" />
        </mxCell>
        <mxCell id="rfwvtbxlyspAQ6YAWuIx-6" value="" style="sketch=0;pointerEvents=1;shadow=0;dashed=0;html=1;strokeColor=none;fillColor=#505050;labelPosition=center;verticalLabelPosition=bottom;verticalAlign=top;outlineConnect=0;align=center;shape=mxgraph.office.devices.cell_phone_windows_phone_standalone;hachureGap=4;fontSize=16;" vertex="1" parent="rfwvtbxlyspAQ6YAWuIx-1">
          <mxGeometry x="-476" y="-165" width="24" height="42" as="geometry" />
        </mxCell>
        <mxCell id="rfwvtbxlyspAQ6YAWuIx-7" value="" style="sketch=0;pointerEvents=1;shadow=0;dashed=0;html=1;strokeColor=none;fillColor=#505050;labelPosition=center;verticalLabelPosition=bottom;verticalAlign=top;outlineConnect=0;align=center;shape=mxgraph.office.devices.cell_phone_windows_phone_standalone;hachureGap=4;fontSize=16;" vertex="1" parent="rfwvtbxlyspAQ6YAWuIx-1">
          <mxGeometry x="-438" y="-165" width="24" height="42" as="geometry" />
        </mxCell>
        <mxCell id="rfwvtbxlyspAQ6YAWuIx-8" value="" style="sketch=0;pointerEvents=1;shadow=0;dashed=0;html=1;strokeColor=none;fillColor=#505050;labelPosition=center;verticalLabelPosition=bottom;verticalAlign=top;outlineConnect=0;align=center;shape=mxgraph.office.devices.lcd_monitor;hachureGap=4;fontSize=16;" vertex="1" parent="rfwvtbxlyspAQ6YAWuIx-1">
          <mxGeometry x="-514" y="-82" width="98" height="72" as="geometry" />
        </mxCell>
        <mxCell id="rfwvtbxlyspAQ6YAWuIx-9" value="" style="sketch=0;pointerEvents=1;shadow=0;dashed=0;html=1;strokeColor=none;fillColor=#505050;labelPosition=center;verticalLabelPosition=bottom;verticalAlign=top;outlineConnect=0;align=center;shape=mxgraph.office.devices.ipad_mini;hachureGap=4;fontSize=16;" vertex="1" parent="rfwvtbxlyspAQ6YAWuIx-1">
          <mxGeometry x="-509.5" y="28" width="41" height="57" as="geometry" />
        </mxCell>
        <mxCell id="rfwvtbxlyspAQ6YAWuIx-10" value="" style="sketch=0;pointerEvents=1;shadow=0;dashed=0;html=1;strokeColor=none;fillColor=#505050;labelPosition=center;verticalLabelPosition=bottom;verticalAlign=top;outlineConnect=0;align=center;shape=mxgraph.office.devices.ipad_mini;hachureGap=4;fontSize=16;" vertex="1" parent="rfwvtbxlyspAQ6YAWuIx-1">
          <mxGeometry x="-455" y="28" width="41" height="57" as="geometry" />
        </mxCell>
        <mxCell id="rfwvtbxlyspAQ6YAWuIx-11" value="" style="sketch=0;pointerEvents=1;shadow=0;dashed=0;html=1;strokeColor=none;fillColor=#505050;labelPosition=center;verticalLabelPosition=bottom;verticalAlign=top;outlineConnect=0;align=center;shape=mxgraph.office.devices.laptop;hachureGap=4;fontSize=16;" vertex="1" parent="rfwvtbxlyspAQ6YAWuIx-1">
          <mxGeometry x="-509.5" y="128" width="91" height="59" as="geometry" />
        </mxCell>
        <mxCell id="rfwvtbxlyspAQ6YAWuIx-12" value="" style="sketch=0;pointerEvents=1;shadow=0;dashed=0;html=1;strokeColor=none;fillColor=#505050;labelPosition=center;verticalLabelPosition=bottom;verticalAlign=top;outlineConnect=0;align=center;shape=mxgraph.office.servers.web_server;hachureGap=4;fontSize=16;" vertex="1" parent="rfwvtbxlyspAQ6YAWuIx-1">
          <mxGeometry x="-168" y="-66" width="121" height="139" as="geometry" />
        </mxCell>
        <mxCell id="rfwvtbxlyspAQ6YAWuIx-13" value="手机移动设备" style="text;html=1;align=center;verticalAlign=middle;resizable=0;points=[];autosize=1;strokeColor=none;fillColor=none;hachureGap=4;fontSize=16;" vertex="1" parent="rfwvtbxlyspAQ6YAWuIx-1">
          <mxGeometry x="-514" y="-198" width="106" height="23" as="geometry" />
        </mxCell>
        <mxCell id="rfwvtbxlyspAQ6YAWuIx-14" value="台式电脑设备" style="text;html=1;align=center;verticalAlign=middle;resizable=0;points=[];autosize=1;strokeColor=none;fillColor=none;hachureGap=4;fontSize=16;" vertex="1" parent="rfwvtbxlyspAQ6YAWuIx-1">
          <mxGeometry x="-517" y="-105" width="106" height="23" as="geometry" />
        </mxCell>
        <mxCell id="rfwvtbxlyspAQ6YAWuIx-15" value="平板电脑设备" style="text;html=1;align=center;verticalAlign=middle;resizable=0;points=[];autosize=1;strokeColor=none;fillColor=none;hachureGap=4;fontSize=16;" vertex="1" parent="rfwvtbxlyspAQ6YAWuIx-1">
          <mxGeometry x="-512" y="3" width="106" height="23" as="geometry" />
        </mxCell>
        <mxCell id="rfwvtbxlyspAQ6YAWuIx-16" value="移动电脑设备" style="text;html=1;align=center;verticalAlign=middle;resizable=0;points=[];autosize=1;strokeColor=none;fillColor=none;hachureGap=4;fontSize=16;" vertex="1" parent="rfwvtbxlyspAQ6YAWuIx-1">
          <mxGeometry x="-514" y="102" width="106" height="23" as="geometry" />
        </mxCell>
        <mxCell id="rfwvtbxlyspAQ6YAWuIx-17" value="前端服务器" style="text;html=1;align=center;verticalAlign=middle;resizable=0;points=[];autosize=1;strokeColor=none;fillColor=none;hachureGap=4;fontSize=16;" vertex="1" parent="rfwvtbxlyspAQ6YAWuIx-1">
          <mxGeometry x="-176" y="-99" width="90" height="23" as="geometry" />
        </mxCell>
        <mxCell id="rfwvtbxlyspAQ6YAWuIx-18" value="" style="sketch=0;pointerEvents=1;shadow=0;dashed=0;html=1;strokeColor=none;fillColor=#505050;labelPosition=center;verticalLabelPosition=bottom;verticalAlign=top;outlineConnect=0;align=center;shape=mxgraph.office.servers.server_generic;hachureGap=4;fontSize=16;" vertex="1" parent="rfwvtbxlyspAQ6YAWuIx-1">
          <mxGeometry x="179" y="-43.5" width="46" height="94" as="geometry" />
        </mxCell>
        <mxCell id="rfwvtbxlyspAQ6YAWuIx-19" value="" style="sketch=0;pointerEvents=1;shadow=0;dashed=0;html=1;strokeColor=none;fillColor=#505050;labelPosition=center;verticalLabelPosition=bottom;verticalAlign=top;outlineConnect=0;align=center;shape=mxgraph.office.servers.server_generic;hachureGap=4;fontSize=16;" vertex="1" parent="rfwvtbxlyspAQ6YAWuIx-1">
          <mxGeometry x="369" y="-179" width="46" height="94" as="geometry" />
        </mxCell>
        <mxCell id="rfwvtbxlyspAQ6YAWuIx-20" value="" style="sketch=0;pointerEvents=1;shadow=0;dashed=0;html=1;strokeColor=none;fillColor=#505050;labelPosition=center;verticalLabelPosition=bottom;verticalAlign=top;outlineConnect=0;align=center;shape=mxgraph.office.servers.server_generic;hachureGap=4;fontSize=16;" vertex="1" parent="rfwvtbxlyspAQ6YAWuIx-1">
          <mxGeometry x="369" y="-50" width="46" height="94" as="geometry" />
        </mxCell>
        <mxCell id="rfwvtbxlyspAQ6YAWuIx-21" value="" style="sketch=0;pointerEvents=1;shadow=0;dashed=0;html=1;strokeColor=none;fillColor=#505050;labelPosition=center;verticalLabelPosition=bottom;verticalAlign=top;outlineConnect=0;align=center;shape=mxgraph.office.servers.server_generic;hachureGap=4;fontSize=16;" vertex="1" parent="rfwvtbxlyspAQ6YAWuIx-1">
          <mxGeometry x="371" y="79" width="46" height="94" as="geometry" />
        </mxCell>
        <mxCell id="rfwvtbxlyspAQ6YAWuIx-22" value="" style="edgeStyle=none;orthogonalLoop=1;jettySize=auto;html=1;rounded=0;fontSize=12;endArrow=open;sourcePerimeterSpacing=8;targetPerimeterSpacing=8;curved=1;" edge="1" parent="rfwvtbxlyspAQ6YAWuIx-1">
          <mxGeometry width="120" relative="1" as="geometry">
            <mxPoint x="231" y="3" as="sourcePoint" />
            <mxPoint x="351.0000000000009" y="3" as="targetPoint" />
            <Array as="points">
              <mxPoint x="289" y="3" />
            </Array>
          </mxGeometry>
        </mxCell>
        <mxCell id="rfwvtbxlyspAQ6YAWuIx-23" value="" style="edgeStyle=none;orthogonalLoop=1;jettySize=auto;html=1;rounded=0;fontSize=12;endArrow=open;sourcePerimeterSpacing=8;targetPerimeterSpacing=8;curved=1;" edge="1" parent="rfwvtbxlyspAQ6YAWuIx-1" source="rfwvtbxlyspAQ6YAWuIx-18" target="rfwvtbxlyspAQ6YAWuIx-19">
          <mxGeometry width="120" relative="1" as="geometry">
            <mxPoint x="200" y="-49" as="sourcePoint" />
            <mxPoint x="336" y="-145" as="targetPoint" />
            <Array as="points" />
          </mxGeometry>
        </mxCell>
        <mxCell id="rfwvtbxlyspAQ6YAWuIx-24" value="" style="edgeStyle=none;orthogonalLoop=1;jettySize=auto;html=1;rounded=0;fontSize=12;endArrow=open;sourcePerimeterSpacing=8;targetPerimeterSpacing=8;curved=1;" edge="1" parent="rfwvtbxlyspAQ6YAWuIx-1" source="rfwvtbxlyspAQ6YAWuIx-18">
          <mxGeometry width="120" relative="1" as="geometry">
            <mxPoint x="204" y="124" as="sourcePoint" />
            <mxPoint x="361.0000000000009" y="105" as="targetPoint" />
            <Array as="points" />
          </mxGeometry>
        </mxCell>
        <mxCell id="rfwvtbxlyspAQ6YAWuIx-25" value="nginx服务器" style="text;html=1;align=center;verticalAlign=middle;resizable=0;points=[];autosize=1;strokeColor=none;fillColor=none;hachureGap=4;fontSize=16;" vertex="1" parent="rfwvtbxlyspAQ6YAWuIx-1">
          <mxGeometry x="155" y="60" width="96" height="23" as="geometry" />
        </mxCell>
        <mxCell id="rfwvtbxlyspAQ6YAWuIx-26" value="" style="edgeStyle=none;orthogonalLoop=1;jettySize=auto;html=1;rounded=0;fontSize=12;endArrow=open;sourcePerimeterSpacing=8;targetPerimeterSpacing=8;curved=1;" edge="1" parent="rfwvtbxlyspAQ6YAWuIx-1" source="rfwvtbxlyspAQ6YAWuIx-12" target="rfwvtbxlyspAQ6YAWuIx-18">
          <mxGeometry width="120" relative="1" as="geometry">
            <mxPoint x="-46" y="-15" as="sourcePoint" />
            <mxPoint x="74" y="-15" as="targetPoint" />
            <Array as="points" />
          </mxGeometry>
        </mxCell>
        <mxCell id="rfwvtbxlyspAQ6YAWuIx-27" value="后端服务器" style="text;html=1;align=center;verticalAlign=middle;resizable=0;points=[];autosize=1;strokeColor=none;fillColor=none;hachureGap=4;fontSize=16;" vertex="1" parent="rfwvtbxlyspAQ6YAWuIx-1">
          <mxGeometry x="347" y="-237" width="90" height="23" as="geometry" />
        </mxCell>
        <mxCell id="rfwvtbxlyspAQ6YAWuIx-28" value="" style="sketch=0;pointerEvents=1;shadow=0;dashed=0;html=1;strokeColor=none;fillColor=#505050;labelPosition=center;verticalLabelPosition=bottom;outlineConnect=0;verticalAlign=top;align=center;shape=mxgraph.office.clouds.cloud;hachureGap=4;fontSize=16;" vertex="1" parent="rfwvtbxlyspAQ6YAWuIx-1">
          <mxGeometry x="351" y="-285" width="81" height="41" as="geometry" />
        </mxCell>
        <mxCell id="rfwvtbxlyspAQ6YAWuIx-29" value="" style="sketch=0;pointerEvents=1;shadow=0;dashed=0;html=1;strokeColor=none;fillColor=#505050;labelPosition=center;verticalLabelPosition=bottom;verticalAlign=top;outlineConnect=0;align=center;shape=mxgraph.office.servers.server_generic;hachureGap=4;fontSize=16;" vertex="1" parent="rfwvtbxlyspAQ6YAWuIx-1">
          <mxGeometry x="251" y="257" width="46" height="94" as="geometry" />
        </mxCell>
        <mxCell id="rfwvtbxlyspAQ6YAWuIx-30" value="" style="sketch=0;pointerEvents=1;shadow=0;dashed=0;html=1;strokeColor=none;fillColor=#505050;labelPosition=center;verticalLabelPosition=bottom;verticalAlign=top;outlineConnect=0;align=center;shape=mxgraph.office.servers.server_generic;hachureGap=4;fontSize=16;" vertex="1" parent="rfwvtbxlyspAQ6YAWuIx-1">
          <mxGeometry x="503" y="257" width="46" height="94" as="geometry" />
        </mxCell>
        <mxCell id="rfwvtbxlyspAQ6YAWuIx-31" value="" style="endArrow=none;html=1;rounded=0;fontSize=12;startSize=14;endSize=14;sourcePerimeterSpacing=8;targetPerimeterSpacing=8;curved=1;" edge="1" parent="rfwvtbxlyspAQ6YAWuIx-1" source="rfwvtbxlyspAQ6YAWuIx-29" target="rfwvtbxlyspAQ6YAWuIx-30">
          <mxGeometry width="50" height="50" relative="1" as="geometry">
            <mxPoint x="269" y="195" as="sourcePoint" />
            <mxPoint x="319" y="145" as="targetPoint" />
          </mxGeometry>
        </mxCell>
        <mxCell id="rfwvtbxlyspAQ6YAWuIx-32" value="" style="edgeStyle=none;orthogonalLoop=1;jettySize=auto;html=1;rounded=0;fontSize=12;endArrow=open;sourcePerimeterSpacing=8;targetPerimeterSpacing=8;curved=1;entryX=0.5;entryY=1;entryDx=0;entryDy=0;" edge="1" parent="rfwvtbxlyspAQ6YAWuIx-1" target="rfwvtbxlyspAQ6YAWuIx-3">
          <mxGeometry width="120" relative="1" as="geometry">
            <mxPoint x="393.5000000000009" y="305" as="sourcePoint" />
            <mxPoint x="393.5" y="197" as="targetPoint" />
            <Array as="points">
              <mxPoint x="393.5" y="232" />
            </Array>
          </mxGeometry>
        </mxCell>
        <mxCell id="rfwvtbxlyspAQ6YAWuIx-33" value="缓存服务器" style="text;html=1;align=center;verticalAlign=middle;resizable=0;points=[];autosize=1;strokeColor=none;fillColor=none;hachureGap=4;fontSize=16;" vertex="1" parent="rfwvtbxlyspAQ6YAWuIx-1">
          <mxGeometry x="229" y="361" width="90" height="23" as="geometry" />
        </mxCell>
        <mxCell id="rfwvtbxlyspAQ6YAWuIx-34" value="文件服务器" style="text;html=1;align=center;verticalAlign=middle;resizable=0;points=[];autosize=1;strokeColor=none;fillColor=none;hachureGap=4;fontSize=16;" vertex="1" parent="rfwvtbxlyspAQ6YAWuIx-1">
          <mxGeometry x="481" y="361" width="90" height="23" as="geometry" />
        </mxCell>
        <mxCell id="rfwvtbxlyspAQ6YAWuIx-35" value="" style="sketch=0;shadow=0;dashed=0;html=1;strokeColor=none;fillColor=#505050;labelPosition=center;verticalLabelPosition=bottom;verticalAlign=top;outlineConnect=0;align=center;shape=mxgraph.office.databases.database_availability_group;hachureGap=4;fontSize=16;" vertex="1" parent="rfwvtbxlyspAQ6YAWuIx-1">
          <mxGeometry x="661" y="-72" width="140" height="151" as="geometry" />
        </mxCell>
        <mxCell id="rfwvtbxlyspAQ6YAWuIx-36" value="" style="sketch=0;shadow=0;dashed=0;html=1;strokeColor=none;fillColor=#505050;labelPosition=center;verticalLabelPosition=bottom;verticalAlign=top;outlineConnect=0;align=center;shape=mxgraph.office.databases.database_mirror;hachureGap=4;fontSize=16;" vertex="1" parent="rfwvtbxlyspAQ6YAWuIx-1">
          <mxGeometry x="882" y="-136.5" width="88" height="93" as="geometry" />
        </mxCell>
        <mxCell id="rfwvtbxlyspAQ6YAWuIx-37" value="数据库" style="text;html=1;align=center;verticalAlign=middle;resizable=0;points=[];autosize=1;strokeColor=none;fillColor=none;hachureGap=4;fontSize=16;" vertex="1" parent="rfwvtbxlyspAQ6YAWuIx-1">
          <mxGeometry x="661" y="-105" width="58" height="23" as="geometry" />
        </mxCell>
        <mxCell id="rfwvtbxlyspAQ6YAWuIx-38" value="备份数据库" style="text;html=1;align=center;verticalAlign=middle;resizable=0;points=[];autosize=1;strokeColor=none;fillColor=none;hachureGap=4;fontSize=16;" vertex="1" parent="rfwvtbxlyspAQ6YAWuIx-1">
          <mxGeometry x="857" y="-165" width="90" height="23" as="geometry" />
        </mxCell>
        <mxCell id="rfwvtbxlyspAQ6YAWuIx-39" value="" style="edgeStyle=none;orthogonalLoop=1;jettySize=auto;html=1;rounded=0;fontSize=12;endArrow=open;sourcePerimeterSpacing=8;targetPerimeterSpacing=8;curved=1;" edge="1" parent="rfwvtbxlyspAQ6YAWuIx-1" target="rfwvtbxlyspAQ6YAWuIx-35">
          <mxGeometry width="120" relative="1" as="geometry">
            <mxPoint x="432" y="4" as="sourcePoint" />
            <mxPoint x="557" y="4" as="targetPoint" />
            <Array as="points" />
          </mxGeometry>
        </mxCell>
        <mxCell id="rfwvtbxlyspAQ6YAWuIx-40" value="" style="html=1;labelBackgroundColor=#ffffff;startArrow=classic;startFill=1;startSize=6;endArrow=classic;endFill=1;endSize=6;jettySize=auto;orthogonalLoop=1;strokeWidth=1;dashed=1;fontSize=14;rounded=0;sourcePerimeterSpacing=8;targetPerimeterSpacing=8;curved=1;" edge="1" parent="rfwvtbxlyspAQ6YAWuIx-1">
          <mxGeometry width="60" height="60" relative="1" as="geometry">
            <mxPoint x="815" y="-16" as="sourcePoint" />
            <mxPoint x="875" y="-76" as="targetPoint" />
            <Array as="points">
              <mxPoint x="847" y="-47" />
            </Array>
          </mxGeometry>
        </mxCell>
        <mxCell id="rfwvtbxlyspAQ6YAWuIx-41" value="" style="orthogonalLoop=1;jettySize=auto;html=1;rounded=0;fontSize=12;endArrow=open;sourcePerimeterSpacing=8;targetPerimeterSpacing=8;" edge="1" parent="rfwvtbxlyspAQ6YAWuIx-1">
          <mxGeometry width="120" relative="1" as="geometry">
            <mxPoint x="-393" y="3" as="sourcePoint" />
            <mxPoint x="-180" y="3" as="targetPoint" />
          </mxGeometry>
        </mxCell>
        <mxCell id="rfwvtbxlyspAQ6YAWuIx-42" value="用户端" style="text;html=1;align=center;verticalAlign=middle;resizable=0;points=[];autosize=1;strokeColor=none;fillColor=none;hachureGap=4;fontSize=16;" vertex="1" parent="rfwvtbxlyspAQ6YAWuIx-1">
          <mxGeometry x="-499" y="-237" width="58" height="23" as="geometry" />
        </mxCell>
        <mxCell id="rfwvtbxlyspAQ6YAWuIx-43" value="" style="sketch=0;pointerEvents=1;shadow=0;dashed=0;html=1;strokeColor=none;labelPosition=center;verticalLabelPosition=bottom;verticalAlign=top;align=center;fillColor=#505050;shape=mxgraph.mscae.intune.user_group;hachureGap=4;fontSize=16;" vertex="1" parent="rfwvtbxlyspAQ6YAWuIx-1">
          <mxGeometry x="-495" y="-283" width="50" height="37" as="geometry" />
        </mxCell>
        <mxCell id="rfwvtbxlyspAQ6YAWuIx-44" value="" style="sketch=0;pointerEvents=1;shadow=0;dashed=0;html=1;strokeColor=none;fillColor=#505050;labelPosition=center;verticalLabelPosition=bottom;outlineConnect=0;verticalAlign=top;align=center;shape=mxgraph.office.clouds.cloud;hachureGap=4;fontSize=16;" vertex="1" parent="rfwvtbxlyspAQ6YAWuIx-1">
          <mxGeometry x="-171.5" y="-146" width="81" height="41" as="geometry" />
        </mxCell>
        <mxCell id="rfwvtbxlyspAQ6YAWuIx-45" value="边缘解析服务器" style="text;html=1;align=center;verticalAlign=middle;resizable=0;points=[];autosize=1;strokeColor=none;fillColor=none;hachureGap=4;fontSize=16;" vertex="1" parent="rfwvtbxlyspAQ6YAWuIx-1">
          <mxGeometry x="1066.75" y="-232" width="94" height="18" as="geometry" />
        </mxCell>
        <mxCell id="rfwvtbxlyspAQ6YAWuIx-46" value="" style="whiteSpace=wrap;html=1;hachureGap=4;fontSize=16;dashed=1;" vertex="1" parent="rfwvtbxlyspAQ6YAWuIx-1">
          <mxGeometry x="1082.25" y="-187.25" width="65.5" height="381.5" as="geometry" />
        </mxCell>
        <mxCell id="rfwvtbxlyspAQ6YAWuIx-47" value="" style="sketch=0;pointerEvents=1;shadow=0;dashed=0;html=1;strokeColor=none;fillColor=#505050;labelPosition=center;verticalLabelPosition=bottom;verticalAlign=top;outlineConnect=0;align=center;shape=mxgraph.office.servers.server_generic;hachureGap=4;fontSize=16;" vertex="1" parent="rfwvtbxlyspAQ6YAWuIx-1">
          <mxGeometry x="1090.75" y="-171.75" width="46" height="94" as="geometry" />
        </mxCell>
        <mxCell id="rfwvtbxlyspAQ6YAWuIx-48" value="" style="sketch=0;pointerEvents=1;shadow=0;dashed=0;html=1;strokeColor=none;fillColor=#505050;labelPosition=center;verticalLabelPosition=bottom;verticalAlign=top;outlineConnect=0;align=center;shape=mxgraph.office.servers.server_generic;hachureGap=4;fontSize=16;" vertex="1" parent="rfwvtbxlyspAQ6YAWuIx-1">
          <mxGeometry x="1090.75" y="-42.75" width="46" height="94" as="geometry" />
        </mxCell>
        <mxCell id="rfwvtbxlyspAQ6YAWuIx-49" value="" style="sketch=0;pointerEvents=1;shadow=0;dashed=0;html=1;strokeColor=none;fillColor=#505050;labelPosition=center;verticalLabelPosition=bottom;verticalAlign=top;outlineConnect=0;align=center;shape=mxgraph.office.servers.server_generic;hachureGap=4;fontSize=16;" vertex="1" parent="rfwvtbxlyspAQ6YAWuIx-1">
          <mxGeometry x="1092.75" y="86.25" width="46" height="94" as="geometry" />
        </mxCell>
        <mxCell id="rfwvtbxlyspAQ6YAWuIx-50" value="" style="edgeStyle=none;orthogonalLoop=1;jettySize=auto;html=1;rounded=0;fontSize=12;endArrow=open;sourcePerimeterSpacing=8;targetPerimeterSpacing=8;curved=1;" edge="1" parent="rfwvtbxlyspAQ6YAWuIx-1" target="rfwvtbxlyspAQ6YAWuIx-35">
          <mxGeometry width="120" relative="1" as="geometry">
            <mxPoint x="1067" y="3" as="sourcePoint" />
            <mxPoint x="866" y="3.3700000000000045" as="targetPoint" />
            <Array as="points" />
          </mxGeometry>
        </mxCell>
        <mxCell id="rfwvtbxlyspAQ6YAWuIx-51" value="" style="sketch=0;pointerEvents=1;shadow=0;dashed=0;html=1;strokeColor=none;fillColor=#505050;labelPosition=center;verticalLabelPosition=bottom;outlineConnect=0;verticalAlign=top;align=center;shape=mxgraph.office.clouds.cloud;hachureGap=4;fontSize=16;" vertex="1" parent="rfwvtbxlyspAQ6YAWuIx-1">
          <mxGeometry x="1069" y="-283" width="81" height="41" as="geometry" />
        </mxCell>
        <mxCell id="rfwvtbxlyspAQ6YAWuIx-52" value="" style="sketch=0;pointerEvents=1;shadow=0;dashed=0;html=1;strokeColor=none;fillColor=#505050;labelPosition=center;verticalLabelPosition=bottom;verticalAlign=top;outlineConnect=0;align=center;shape=mxgraph.office.servers.monitoring_sql_reporting_services;hachureGap=4;fontSize=12;" vertex="1" parent="rfwvtbxlyspAQ6YAWuIx-1">
          <mxGeometry x="1316" y="-49.5" width="83.25" height="106" as="geometry" />
        </mxCell>
        <mxCell id="rfwvtbxlyspAQ6YAWuIx-53" value="" style="edgeStyle=none;orthogonalLoop=1;jettySize=auto;html=1;rounded=0;fontSize=12;endArrow=open;sourcePerimeterSpacing=8;targetPerimeterSpacing=8;curved=1;" edge="1" parent="rfwvtbxlyspAQ6YAWuIx-1">
          <mxGeometry width="120" relative="1" as="geometry">
            <mxPoint x="1313" y="3" as="sourcePoint" />
            <mxPoint x="1158" y="3.3839285714284415" as="targetPoint" />
            <Array as="points" />
          </mxGeometry>
        </mxCell>
        <mxCell id="rfwvtbxlyspAQ6YAWuIx-54" value="边缘端" style="text;html=1;align=center;verticalAlign=middle;resizable=0;points=[];autosize=1;strokeColor=none;fillColor=none;hachureGap=4;fontSize=16;" vertex="1" parent="rfwvtbxlyspAQ6YAWuIx-1">
          <mxGeometry x="1329.5" y="-77.75" width="46" height="18" as="geometry" />
        </mxCell>
        <mxCell id="rfwvtbxlyspAQ6YAWuIx-55" value="" style="sketch=0;pointerEvents=1;shadow=0;dashed=0;html=1;strokeColor=none;fillColor=#505050;labelPosition=center;verticalLabelPosition=bottom;verticalAlign=top;outlineConnect=0;align=center;shape=mxgraph.office.concepts.hybrid;hachureGap=4;fontSize=12;" vertex="1" parent="rfwvtbxlyspAQ6YAWuIx-1">
          <mxGeometry x="1329.5" y="-133" width="55.5" height="48" as="geometry" />
        </mxCell>
      </root>
    </mxGraphModel>
  </diagram>
</mxfile>
